<svg enable-background="new 0 0 128 128" viewBox="0 0 128 128" xmlns="http://www.w3.org/2000/svg" xmlns:xlink="http://www.w3.org/1999/xlink"><linearGradient id="a"><stop offset=".0875" stop-color="#d99914"/><stop offset=".4098" stop-color="#d59612"/><stop offset=".735" stop-color="#c98d0d"/><stop offset=".987" stop-color="#ba8207"/></linearGradient><radialGradient id="b" cx="52.44" cy="100.64" gradientTransform="matrix(1 0 0 -1 0 130)" gradientUnits="userSpaceOnUse" r="12.849" xlink:href="#a"/><linearGradient id="c" gradientTransform="matrix(1 0 0 -1 0 130)" gradientUnits="userSpaceOnUse" x1="64" x2="64" y1="78.096" y2="21.966"><stop offset=".0197" stop-color="#f7bc00"/><stop offset="1" stop-color="#fcd73e"/></linearGradient><linearGradient id="d"><stop offset=".0813" stop-color="#de7f14"/><stop offset=".3389" stop-color="#da7d12"/><stop offset=".5993" stop-color="#ce760d"/><stop offset=".8602" stop-color="#ba6c05"/><stop offset=".987" stop-color="#ad6500"/></linearGradient><radialGradient id="e" cx="113.64" cy="83.019" gradientUnits="userSpaceOnUse" r="14.631" xlink:href="#d"/><radialGradient id="f" cx="89.314" cy="45.694" gradientUnits="userSpaceOnUse" r="11.845"><stop offset="0" stop-color="#de7f14"/><stop offset=".3288" stop-color="#db7e13"/><stop offset=".5269" stop-color="#d37911"/><stop offset=".6903" stop-color="#c5720d"/><stop offset=".8348" stop-color="#b06708"/><stop offset=".9657" stop-color="#975901"/><stop offset=".9891" stop-color="#915600"/></radialGradient><radialGradient id="g" cx="32.778" cy="58.198" gradientTransform="matrix(.8944 .0132 -.0148 .9999 3.9954 -.463)" gradientUnits="userSpaceOnUse" r="7.6828"><stop offset="0" stop-color="#de7f14"/><stop offset=".2654" stop-color="#da7d13"/><stop offset=".5099" stop-color="#cf770f"/><stop offset=".7461" stop-color="#bd6d09"/><stop offset=".976" stop-color="#a26000"/><stop offset=".987" stop-color="#a15f00"/></radialGradient><radialGradient id="h" cx="229.26" cy="353.29" gradientTransform="matrix(.723 .6909 .5657 -.592 -287.64 68.918)" gradientUnits="userSpaceOnUse" r="8.5432" xlink:href="#a"/><radialGradient id="i" cx="77.251" cy="83.38" gradientUnits="userSpaceOnUse" r="26.321" xlink:href="#d"/><radialGradient id="j" cx="44.104" cy="97.791" gradientUnits="userSpaceOnUse" r="12.936" xlink:href="#d"/><radialGradient id="k" cx="20.37" cy="80.858" gradientUnits="userSpaceOnUse" r="4.5957" xlink:href="#d"/><path d="m47.73 29.72.02 9.37c5.59.15 6.46-9.3-.02-9.37z" fill="url(#b)"/><path d="m124 35.87s-.19 35.19 0 49.06c.05 4.06-2.3 7.8-6.51 8.68l-113.49 22.92v-52.56c0-.16 120-28.1 120-28.1z" fill="url(#c)"/><path d="m124 35.9s-14.19-20.98-40.22-24.39c-6.61-.87-29.95 14.58-35.98 18.19 0 0 9.01 3.69.54 7.84-5.04 2.47-7.3-1.89-7.3-1.89l-37.02 26.56v1.76c21.03-4.87 119.98-28.07 119.98-28.07z" fill="#ffe959"/><path d="m83.2 14.72c.09 0 .14.01.16.01 21.69 2.85 34.61 18.5 37.39 22.22-.03 6.07-.17 35.53.01 48.03.03 2.14-.98 4.85-3.91 5.46l-109.61 22.12v-48.22c.01-.12.02-.25.02-.37v-.09l33.36-23.95c1.22.89 2.82 1.59 4.78 1.59 1.16 0 2.36-.24 3.55-.73 1.23-.49 2.04-1.69 2.03-3.02l-.01-6.22c.69-.43 1.48-.92 2.38-1.48 6.74-4.2 24.63-15.36 29.85-15.35m0-3.25c-7.29 0-29.54 14.72-35.41 18.22 0 0 .03.01.09.04-.06 0-.1-.02-.16-.02l.02 8.06c-.87.35-1.65.49-2.35.49-2.99 0-4.36-2.63-4.36-2.63l-37.01 26.58v1.75l-.02.01v52.55l113.49-22.92c4.2-.88 6.56-4.62 6.51-8.68-.19-13.72 0-48.3 0-49.02v-.03s-.02 0-.02 0c-.42-.61-14.56-21-40.2-24.36-.18-.03-.37-.04-.58-.04z" fill="#606060" opacity=".2"/><path d="m108.03 68.6c4.65-.42 8.42 2.85 8.42 7.32 0 4.46-3.77 8.41-8.42 8.83s-8.41-2.85-8.41-7.32c.01-4.46 3.77-8.41 8.41-8.83z" fill="url(#e)" opacity=".9"/><path d="m99.31 41.64s-3.41-6.99-13.05-4.56-8.83 9.54-8.83 9.54 3.51 7.75 12.97 5.23c8.29-2.97 8.91-10.21 8.91-10.21z" fill="url(#f)"/><path d="m38.38 55.9s-1.94-4.64-7.65-3.12c-5.7 1.52-5.3 6.21-5.3 6.21s2.55 4.35 7.46 3.09 5.49-6.18 5.49-6.18z" fill="url(#g)"/><path d="m81.21 19.22c3.03-.27 5.47 1.24 5.47 3.37 0 2.14-2.44 4.1-5.47 4.37s-5.48-1.24-5.48-3.38 2.44-4.09 5.48-4.36z" fill="url(#h)"/><path d="m66.86 60.84c7.92-.71 14.33 4.87 14.33 12.46 0 7.6-6.42 14.33-14.33 15.06-7.92.71-14.33-4.86-14.33-12.46s6.42-14.35 14.33-15.06z" fill="url(#i)" opacity=".9"/><path d="m39.49 84.59c4.01-.36 7.26 2.46 7.26 6.31s-3.25 7.26-7.26 7.62-7.26-2.46-7.26-6.31 3.25-7.26 7.26-7.62z" fill="url(#j)" opacity=".9"/><path d="m18.12 74c2.14-.19 3.89 1.32 3.89 3.38s-1.74 3.89-3.89 4.09c-2.15.19-3.89-1.32-3.89-3.38 0-2.05 1.74-3.89 3.89-4.09z" fill="url(#k)" opacity=".9"/></svg>