<svg enable-background="new 0 0 128 128" viewBox="0 0 128 128" xmlns="http://www.w3.org/2000/svg" xmlns:xlink="http://www.w3.org/1999/xlink"><radialGradient id="a" cx="-1119.5129" cy="750.1523" gradientTransform="matrix(0 -1 .6873 0 -455.091 -1047.38)" gradientUnits="userSpaceOnUse" r="51.908"><stop offset=".3675" stop-color="#64b5f6"/><stop offset=".9412" stop-color="#2598f3"/><stop offset=".9445" stop-color="#2196f3"/></radialGradient><linearGradient id="b" gradientUnits="userSpaceOnUse" x1="54.2856" x2="85.9966" y1="28.6114" y2="45.7284"><stop offset=".2346" stop-color="#1976d2"/><stop offset="1" stop-color="#2196f3"/></linearGradient><linearGradient id="c" gradientUnits="userSpaceOnUse" x1="36.5865" x2="68.8395" y1=".9678" y2="59.1583"><stop offset=".1997" stop-color="#f06292"/><stop offset="1" stop-color="#e91e63"/></linearGradient><path d="m101.3 36.5h-64.9l7.6 79.7c.2 1.4 1 2.7 2.3 3.3 3.9 2 12.5 4.5 22.5 4.5s18.7-2.5 22.5-4.5c1.3-.7 2.1-1.9 2.3-3.3.1 0 7.7-79.7 7.7-79.7z" fill="url(#a)"/><ellipse cx="68.9" cy="36.5" fill="#90caf9" rx="32.4" ry="8.1"/><ellipse cx="68.9" cy="36.5" fill="url(#b)" rx="27.5" ry="6.4"/><path d="m68.9 31.3c7.6 0 15 .7 20.7 1.9 6.1 1.3 8.3 2.8 8.7 3.4l-7.6 79.1c-.1.4-.3.8-.7 1-3.8 2-12.1 4.2-21.1 4.2s-17.3-2.2-21.1-4.2c-.4-.2-.6-.6-.7-1l-7.6-79.1c.5-.6 2.7-2.1 8.7-3.4 5.7-1.2 13-1.9 20.7-1.9m0-3c-17.9 0-32.4 3.6-32.4 8.1l7.6 79.7c.2 1.4 1 2.7 2.3 3.3 3.9 2 12.5 4.5 22.5 4.5s18.7-2.5 22.5-4.5c1.3-.7 2.1-1.9 2.3-3.3l7.6-79.7h-.1c0-4.4-14.5-8.1-32.3-8.1z" fill="#424242" opacity=".2"/><path d="m61.4 30.3-.8-8.9c0-.1 0-.2 0-.3-1.2-6.3-6-11.4-12.2-12.8l-17.7-4.2c-1.7-.4-3.5.7-3.9 2.4s.7 3.5 2.4 3.9l17.7 4.2c3.7.9 6.6 3.8 7.3 7.6l.8 8.8 1 11.2c2 .3 4.2.5 6.6.6-.1-.1-1.2-12.5-1.2-12.5z" fill="url(#c)"/><path d="m29.9 5c.2 0 .4 0 .5.1l17.7 4.2c5.9 1.4 10.4 6.1 11.5 12.1v.2l.8 8.9 1 11.3c-1.6-.1-3.1-.2-4.5-.4l-.9-10.6-.8-8.8v-.1c-.8-4.1-4-7.4-8.1-8.3l-17.7-4.2c-1.2-.3-2-1.5-1.7-2.7.3-1 1.2-1.7 2.2-1.7m0-1c-1.5 0-2.8 1-3.1 2.5-.4 1.7.7 3.5 2.4 3.9l17.7 4.2c3.7.9 6.6 3.8 7.3 7.6l.8 8.8 1 11.2c2 .3 4.2.5 6.6.6l-1.1-12.5-.8-8.9c0-.1 0-.2 0-.3-1.2-6.3-6-11.4-12.2-12.8l-17.8-4.2c-.3-.1-.5-.1-.8-.1z" fill="#424242" opacity=".2"/><path d="m49.6 13.9c-.6 1-.4 2.2.6 2.9.6.4 1.2 1 1.9 1.8.7.9 1.1 1.8 1.3 2.5.3 1.1 1.5 1.8 2.7 1.5l3.7-1.1c1.1-.3 1.7-1.3 1.5-2.4-.3-1.5-.9-3.6-2.4-5.6-1.4-1.8-3.1-3-4.3-3.7-1-.6-2.3-.2-2.9.7-.1.1-2.1 3.4-2.1 3.4z" fill="#e91e63"/><g fill="none" stroke="#f06292" stroke-linecap="round" stroke-linejoin="round" stroke-miterlimit="10"><path d="m53.7 11.9-2.1 3.1"/><path d="m56 14-2.7 2.6"/><path d="m57.9 16.6-3.2 1.7"/><path d="m58.7 19.2-3.3 1.1"/></g><path d="m53.5 10.6c.2 0 .4.1.6.1 1.1.6 2.7 1.7 4 3.4 1.4 1.8 2 3.8 2.2 5.1.1.6-.3 1.1-.8 1.3l-3.7 1.1c-.1 0-.2 0-.3 0-.5 0-1-.4-1.1-.9-.3-1.1-.8-2-1.5-2.9-.6-.8-1.3-1.4-2-2-.5-.4-.6-1-.3-1.6l2-3.2c.1-.2.5-.4.9-.4m0-1c-.7 0-1.4.4-1.8 1l-2 3.2c-.6 1-.4 2.2.6 2.9.6.4 1.2 1 1.9 1.8.7.9 1.1 1.8 1.3 2.5.3 1 1.1 1.6 2.1 1.6.2 0 .4 0 .6-.1l3.7-1.1c1.1-.3 1.7-1.3 1.5-2.4-.3-1.5-.9-3.6-2.4-5.6-1.4-1.8-3.1-3-4.3-3.7-.5 0-.9-.1-1.2-.1z" fill="#444" opacity=".2"/><path d="m68.9 30c-2.6 0-5.1.1-7.4.2l.1 1.1c2.3-.1 4.7-.2 7.3-.2 17.3 0 26.4 3.5 26.4 5.4s-9.1 5.4-26.4 5.4c-2.3 0-4.5-.1-6.5-.2-2.4-.1-4.6-.3-6.6-.6-8.8-1.1-13.4-3.3-13.4-4.6s4.3-3.3 12.6-4.5v-1.1c-8.1 1.1-13.6 3.2-13.6 5.6 0 2.5 5.9 4.6 14.5 5.7 1 .1 2.1.2 3.2.3 1 .1 2 .2 3 .2h.3c2.1.1 4.2.2 6.4.2 15.2 0 27.5-2.9 27.5-6.4 0-3.6-12.3-6.5-27.4-6.5z" fill="#444" opacity=".2"/></svg>