<svg enable-background="new 0 0 128 128" viewBox="0 0 128 128" xmlns="http://www.w3.org/2000/svg" xmlns:xlink="http://www.w3.org/1999/xlink"><linearGradient id="a" gradientUnits="userSpaceOnUse" x1="56.592" x2="118.65" y1="74.106" y2="86.108"><stop offset="0" stop-color="#00acc1"/><stop offset=".2599" stop-color="#009cad"/><stop offset=".7887" stop-color="#00727a"/><stop offset="1" stop-color="#006064"/></linearGradient><linearGradient id="b" gradientUnits="userSpaceOnUse" x1="66.303" x2="151.6" y1="71.84" y2="89.011"><stop offset="0" stop-color="#80deea"/><stop offset=".197" stop-color="#6cd3e0"/><stop offset=".5985" stop-color="#39b7c5"/><stop offset="1" stop-color="#0097a7"/></linearGradient><path d="m98.51 91.68-91.55-19.11c-2.29-.48-3.66-4.36-2.43-6.53l11.57-11.52c1.05-1.48 2.84-2.19 4.58-1.82l93.26 21.88z" fill="#00acc1"/><path d="m122.91 73.79-1.12-.44.92-4.5-115.89 5.26 1.58 5.59c.5 1.23 1.55 2.12 2.81 2.38l87.36 18.18c1.51.31 3.06-.26 4.03-1.5l4.63-5.89 2.23.46c2.39.5 4.84-.52 6.22-2.6l7.69-11.53c.84-1.25.96-4.72-.46-5.41z" fill="url(#a)"/><path d="m122.09 73.42-2.28-.48 2.75-3.49c.31-.4.1-.99-.38-1.09l-95.39-19.92-2.19 2.79-3.91-.92c-1.74-.36-3.53.35-4.58 1.82l-11.08 12.86c-1.39 1.94-.35 4.71 1.93 5.19l2.35.49-2.34 2.98c-.3.38-.1.96.37 1.06l94.1 19.64c.82.17 1.66-.14 2.19-.81l2.66-3.38 3.19.67c2.39.5 4.84-.52 6.22-2.6l7.69-11.53c.82-1.25.14-2.98-1.3-3.28z" fill="url(#b)"/><path d="m11.33 73.19 89.85 17.67 15.77-20.12-89.89-19.2z" fill="#006064"/><path d="m100.1 89.24-84.64-17.4 96.41-17.22s2.03.12 2.03 1.95c0 2.27.52 15.33.52 15.33z" fill="#ffc400"/><path d="m97.81 72.05-83.47-15.08s.06-1.39.94-2.5c.88-1.12 11.4-14.43 11.4-14.43.49-.62 1.26-.91 2.02-.77l83.98 15.51c.54.1.78.77.43 1.21l-11.55 14.66c-.89 1.13-2.34 1.68-3.75 1.4z" fill="#ffd740"/><path d="m100.1 89.24-85.82-16.79v-15.07c0-.87.76-1.52 1.58-1.36l81.61 15.97c1.53.3 2.63 1.68 2.63 3.28z" fill="#ffe57f"/><path d="m20.09 56.97c6.25.31 12.44.93 18.64 2.35 6.18 1.49 11.86 4 17.83 4.44 3.02.34 6.12.45 9.28.79 1.58.19 3.17.44 4.75.81 1.6.36 3.1.88 4.57 1.4 2.95 1.05 5.79 2.03 8.81 2.71 2.99.74 6.07 1.26 9.12 1.92-3.13.01-6.25-.12-9.38-.46-1.56-.19-3.13-.44-4.68-.76-1.56-.33-3.07-.76-4.57-1.16s-2.98-.8-4.42-1.07c-1.46-.27-2.96-.44-4.48-.55-3.03-.26-6.15-.33-9.32-.65-1.58-.18-3.18-.42-4.77-.79-1.56-.38-3.1-.81-4.59-1.32-2.99-1.02-5.87-2.13-8.77-3.1-5.84-1.82-11.97-3.07-18.02-4.56z" fill="#fff9c4"/><path d="m28.34 40.22c.06 0 .13.01.19.02l83.16 15.36.04.01h.04c.02 0 .14.02.3.06l.06.02.23.04.05.06.14.09c.21.14.35.31.35.69 0 2.07.42 12.78.5 14.99l-13.69 16.59-84.43-16.52v-14.01c0-.02-.05-1.54.77-2.51.92-1.09 11-13.92 11.42-14.46.22-.27.53-.43.87-.43m0-1c-.63 0-1.24.29-1.65.81 0 0-10.48 13.35-11.4 14.43-1.1 1.3-1 3.2-1 3.2v14.79l85.82 16.79 14.31-17.34s-.52-13.06-.52-15.33c0-.78-.37-1.23-.79-1.52-.1-.14-.24-.25-.42-.28l-.37-.07c-.26-.07-.45-.08-.45-.08l-83.16-15.36c-.13-.03-.25-.04-.37-.04z" fill="#dd2c00" opacity=".2"/><path d="m122.91 73.79-.03-.01c-.23-.17-.48-.3-.78-.37l-.31-.06.82-4.02c.15-.22.06-.48.06-.48-.06-.24-.23-.44-.49-.5l-7.96-1.66.04 1.03 7.34 1.53-3.49 4.23s2.91.6 4.12.91c1.5.38.89 3.37.3 4.25l-7.69 11.53c-.95 1.43-2.51 2.28-4.18 2.28-.34 0-.67-.03-1-.1l-2.23-.46-.61-.13-.38.49-4.63 5.89c-.6.76-1.48 1.2-2.43 1.2-.21 0-.41-.02-.61-.06l-87.35-18.18c-.92-.19-1.69-.84-2.07-1.73l-1.49-5.25.52-2.28-1.22-.26c-.69-.14-1.41-.93-1.83-2.01-.43-1.1-.48-1.79-.19-2.78 0 0 .27-.67.67-1.19l10.35-12.17.02-.08 2.31-2.92v-.02c-.94.29-1.79.87-2.39 1.72l-11.07 12.86c-.23.32-.63.84-.98 2.19-.41 1.57.62 4.91 2.91 5.39l.74.15-.73.93c-.11.14-.13.3-.12.46h-.02l.03.11c.01.03.01.06.03.09l1.53 5.38c.5 1.23 1.55 2.12 2.81 2.38l87.36 18.18c.27.06.55.08.82.08 1.23 0 2.42-.57 3.21-1.58l4.63-5.89 2.23.46c.4.08.81.12 1.21.12 1.98 0 3.86-1 5.01-2.72l7.69-11.53c.82-1.24.96-5.1-.48-5.4z" fill="#212121" opacity=".2"/></svg>