<svg enable-background="new 0 0 128 128" viewBox="0 0 128 128" xmlns="http://www.w3.org/2000/svg" xmlns:xlink="http://www.w3.org/1999/xlink"><linearGradient id="a"><stop offset="0" stop-color="#ff3d2a"/><stop offset=".0408" stop-color="#f63424"/><stop offset=".1741" stop-color="#dd1d14"/><stop offset=".3141" stop-color="#cc0d09"/><stop offset=".4638" stop-color="#c10302"/><stop offset=".6404" stop-color="#be0000"/><stop offset=".9902" stop-color="#ff1500"/></linearGradient><linearGradient id="b" gradientUnits="userSpaceOnUse" x1="17.181" x2="45.393" xlink:href="#a" y1="71.738" y2="73.757"/><linearGradient id="c" gradientTransform="matrix(.9859 -.1672 .1672 .9859 7.8055 -71.305)" gradientUnits="userSpaceOnUse" x1="5.4463" x2="33.749" xlink:href="#a" y1="156.28" y2="158.3"/><linearGradient id="d" gradientUnits="userSpaceOnUse" x1="64.886" x2="93.097" xlink:href="#a" y1="78.777" y2="80.796"/><linearGradient id="e" gradientUnits="userSpaceOnUse" x1="76.479" x2="104.69" xlink:href="#a" y1="68.922" y2="70.941"/><linearGradient id="f" gradientUnits="userSpaceOnUse" x1="93.584" x2="121.8" xlink:href="#a" y1="54.139" y2="56.158"/><linearGradient id="g" gradientTransform="matrix(.999 .045 -.045 .999 -6.7814 16.959)" gradientUnits="userSpaceOnUse" x1="21.124" x2="124.08" y1="39.244" y2="39.244"><stop offset=".0049261" stop-color="#fbc02d"/><stop offset=".0811" stop-color="#fcca30"/><stop offset=".2088" stop-color="#fdd534"/><stop offset=".3596" stop-color="#fdd835"/><stop offset=".6897" stop-color="#fff59d"/><stop offset="1" stop-color="#fdd835"/></linearGradient><linearGradient id="h" gradientUnits="userSpaceOnUse" x1="9.7318" x2="74.285" y1="67.527" y2="67.527"><stop offset="0" stop-color="#ffc044"/><stop offset=".8473" stop-color="#d95f23"/></linearGradient><linearGradient id="i" gradientUnits="userSpaceOnUse" x1="10.014" x2="117.79" y1="44.887" y2="44.887"><stop offset="0" stop-color="#fff2d9"/><stop offset=".8473" stop-color="#f7d398"/></linearGradient><linearGradient id="j" gradientUnits="userSpaceOnUse" x1="72.836" x2="118.4" y1="59.201" y2="59.201"><stop offset="0" stop-color="#ffb219"/><stop offset=".8473" stop-color="#ca4300"/></linearGradient><path d="m74.26 111.88c-2.85-2.82-6.56-3.52-10.55-4.93-11.4-3.17-21.95-5.63-33.07-10.21-3.14-1.06-6.27-1.41-9.41-2.11-3.74-1.09-7.13-3.22-9.8-6.56-.2.71-.31 1.49-.28 2.34.19 5.4 0 9.39 1.33 11.26 1.33 1.88 40.67 13.37 50.94 16.78 7.15 2.37 8.83 4.1 11.9 3.81-.39-3.95 1.69-7.71-1.06-10.38z" fill="#df8826"/><path d="m119.11 74.11c.48-4.46-.57-4.69-6.08-5.87-5.51-1.17-40.48-11.85-45.8-13.26s-8.36-2.58-11.78-1.41-7.22 3.52-7.22 3.52c-8.55 6.34-31.93 25.34-31.93 25.34s-3.78 1.83-4.85 5.64c2.67 3.34 6.06 5.47 9.8 6.56 3.14.7 6.27 1.06 9.41 2.11 11.12 4.58 21.67 7.04 33.07 10.21 3.83 1.35 7.84 2.49 10.64 5.04 1.14-1.21 3.04-.93 4.25-2.05 37.19-29.56 40.47-35.6 40.49-35.83z" fill="#f6d9a4"/><path d="m78.25 108.83c-1.21 1.12-4.01 2.87-3.99 3.05.36 3.7.45 10.66.78 10.56 3.23-.94 11.02-7.33 17.11-11.79 6.08-4.46 26.8-24.31 27.37-25.96.55-1.59.2-4.05.14-5.71-.09-2.56-.2-5.15-.44-7.7.24 2.63-1.48 4.38-2.95 5.76-11.95 11.17-24.09 20.55-38.02 31.79z" fill="#d76208"/><path d="m11.54 81.73c-1.43 1.58-1.25 2.83.14 4.46 2.61 3.05 9.84 6.8 20.38 7.51s19.96-2.76 28.08-19.48-10.68-26.75-10.68-26.75-36.49 32.68-37.92 34.26z" fill="#ea8a77"/><path d="m13.06 82.55c-1.59 1.47-.29 5.28 17.68 8.92 0 0-6.37-5.4-10.55-7.98s-5.61-2.35-7.13-.94z" fill="#a72e18"/><path d="m28.93 86.66c-1.43 1.58-1.25 2.83.14 4.46 2.61 3.05 9.84 6.8 20.38 7.51 10.55.7 19.96-2.76 28.08-19.48s-10.68-26.75-10.68-26.75-36.49 32.68-37.92 34.26z" fill="#eaa88e"/><path d="m30.45 87.48c-1.59 1.47-.29 5.28 17.68 8.92 0 0-6.37-5.4-10.55-7.98s-5.61-2.35-7.13-.94z" fill="#a72e18"/><path d="m49.57 92.68c-1.59 1.76-1.39 3.15.16 4.97 2.91 3.4 10.96 7.58 22.71 8.37 11.75.78 22.23-3.07 31.29-21.7s-11.91-29.8-11.91-29.8-40.66 36.39-42.25 38.16z" fill="#ea8a77"/><path d="m51.27 93.59c-1.77 1.64-.32 5.88 19.69 9.93 0 0-7.09-6.01-11.75-8.89s-6.25-2.61-7.94-1.04z" fill="#a72e18"/><path d="m122.47 58.96c1.5-.36 2.66-2.25 2.53-4.13-.4.93-1.66.51-2.05-.42s-.26-2.05-.33-3.1c-.06-1.05-.48-2.26-1.33-2.41-.72-.13-1.35.58-2.06.77-2.4.65-3.97-4.5-6.36-3.75-.65.2-1.15.83-1.68 1.35-2.48 2.42-5.99 2.61-9.06 1.67s-5.88-2.85-8.81-4.31c-1.56-.77-3.16-1.41-4.78-1.93 5.07 10.24 9.76 20.79 19.46 24.47 3.83 1.29 9.1 2.13 14.15 2.05.08-.45.12-.91.07-1.37-1.36-.56-3.05-2.06-2.35-3.6.42-.91 1.52-1.03 2.26-.51.74.51 1.21 1.46 1.65 2.36 1.24-2.27.6-5.76-1.31-7.14z" fill="#9abc00"/><path d="m19.75 55.43c-2.44 1.95-4.87 3.95-7.21 6.09-2.37 2.18-3.05 1.85-5.74.65-.32.45-.58 1-.74 1.57.34.39.72.67 1.11.99-.64.7-1.29 1.41-1.93 2.11-.29-.5-.76-.84-1.26-.87-.09 1.81-.19 3.62-.28 5.42.81.31 1.72.19 2.46-.32-.4 1.52.03 3.33 1.04 4.33.83-.68 1.38-1.87 1.42-3.1.86-.01 1.71.53 2.22 1.4-.6.93-1.2 1.87-1.8 2.8.5 1.1 1.67 1.66 2.64 1.25.48 1.52 1.31 2.86 2.37 3.82-.06-.85-.13-1.71-.19-2.56.84-.23 1.69-.46 2.53-.69-.06 1.13-.1 2.35.36 3.33s1.63 1.54 2.33.8c-.28 1.34.32 2.69 1.23 3.54 1.31-14.42 6.39-27.4 12.02-40.1-4.22 3.1-8.44 6.23-12.58 9.54z" fill="#9abc00"/><path d="m56.93 41.37c-4.12-1.39-8.19-3.08-12.37-2.38-3.59.6-6.81 2.93-9.92 5.21-.77.56-1.53 1.12-2.3 1.68-5.63 12.71-10.72 25.68-12.02 40.1.28.26.58.47.89.62 1.36.63 2.87.4 4.31.12.46-1.31-.03-2.81-.05-4.24s1.08-3.14 2.08-2.42c-.68 2.67 1.59 4.97 3.55 6.38.72.51 1.53 1.05 2.33.78.37-.12.7-.41 1.08-.5 1.57-.35 2.19 2.67 3.67 3.39 1.55.75 3.07-2.36 1.81-3.7 1.83-1.29 3.72 1.55 4.59 3.92.61 1.66 1.71 3.54 2.95 4.08 9.34-13.32 9.54-34.43 9.4-53.04z" fill="#c6d500"/><g fill="#9abc00"><path d="m92.94 95.05c-1.04-.32-1.95-1.32-2.03-2.62v-.02c-.75-1.06-1.42-2.12-1.91-3.03-7.83-16.91-16.5-31.72-25.48-46.48-2.23-.16-4.42-.81-6.59-1.54.14 18.61-.06 39.73-9.41 53.04.53.23 1.08.22 1.63-.17-.34-1.17.97-2.11 1.96-1.89s1.88 1.01 2.88 1.02c1.55.01 2.77-2.33 2.11-4.06 1.11-1.23 2.9-.14 3.86 1.28.95 1.42 1.72 3.25 3.14 3.81 1.19.47 2.45-.12 3.68-.43 1.22-.32 2.74-.21 3.39 1.11.44.89.35 2.11.91 2.88.59.8 1.58.76 2.44.94 1.93.41 3.45 2.16 5.16 3.35 1.7 1.19 4.12 1.67 5.42-.14-1.15-1.2-1.08-3.75.14-4.84s3.21-.37 3.77 1.36c.16.5.22 1.07.52 1.47.58.77 1.63.37 2.33-.22 1.2-1.01 2.13-2.46 2.7-4.11-.21-.23-.41-.47-.62-.71z"/><path d="m92.94 95.05c.2.24.4.47.6.7.07-.2.15-.38.21-.58-.26.01-.54-.04-.81-.12z"/><path d="m74.46 41.49c-3.56.51-7.09 1.63-10.67 1.44-.09 0-.18-.02-.27-.02 8.98 14.76 17.65 29.57 25.48 46.48.49.91 1.16 1.97 1.91 3.03-.09-1.63 1.55-3.1 2.65-2.2-.66-1.64-1.34-3.38-1.2-5.2s1.47-3.62 2.92-3.26c1.44.36 2.31 2.57 3.77 2.6.78.01 1.4-.59 1.99-1.29-1.23-14.15-14.79-28.19-22.81-41.88-1.24.02-2.51.12-3.77.3z"/></g><path d="m108 67.16c-9.69-3.68-14.38-14.23-19.46-24.47-3.36-1.06-6.83-1.57-10.29-1.5 8.01 13.68 21.57 27.73 22.81 41.88.81-.96 1.58-2.1 2.65-2.09.66.01 1.32.49 1.96.27 1.02-.35 1.24-2.15 2.19-2.72 1.23-.74 3.01.95 3.94-.29.86-1.15-.36-2.86-1.44-3.67-.53-1.95 1.64-3.48 3.27-3.11 1.64.37 3.11 1.68 4.77 1.69 1.79.01 3.39-1.81 3.75-3.94-5.05.08-10.32-.76-14.15-2.05z" fill="#7a8e00"/><ellipse cx="30.6" cy="72.7" fill="url(#b)" rx="15.73" ry="8.68"/><ellipse cx="31.02" cy="70.64" fill="#e44000" rx="15.3" ry="6.63"/><ellipse cx="31.83" cy="69.76" fill="#891301" rx="14.49" ry="5.75"/><path d="m68.24 77.31c.65 4.73-5.77 10.01-14.33 11.81s-16.03-.59-16.68-5.31c-.65-4.73 5.77-10.02 14.33-11.81s16.03.58 16.68 5.31z" fill="url(#c)"/><ellipse cx="52.88" cy="78.45" fill="#e44000" rx="15.42" ry="6.58" transform="matrix(.9755 -.2202 .2202 .9755 -15.975 13.569)"/><ellipse cx="53.56" cy="77.41" fill="#891301" rx="14.6" ry="5.7" transform="matrix(.9761 -.2173 .2173 .9761 -15.541 13.487)"/><ellipse cx="78.3" cy="79.74" fill="url(#d)" rx="15.73" ry="8.68"/><ellipse cx="78.73" cy="77.68" fill="#e44000" rx="15.3" ry="6.63"/><ellipse cx="78.39" cy="76.8" fill="#891301" rx="13.54" ry="5.51"/><ellipse cx="89.89" cy="69.88" fill="url(#e)" rx="15.73" ry="8.68"/><ellipse cx="90.32" cy="67.83" fill="#e44000" rx="15.3" ry="6.63"/><ellipse cx="89.99" cy="66.95" fill="#891301" rx="13.54" ry="5.51"/><ellipse cx="107" cy="55.1" fill="url(#f)" rx="15.73" ry="8.68"/><ellipse cx="107.43" cy="53.05" fill="#e44000" rx="15.3" ry="6.63"/><ellipse cx="107.09" cy="52.17" fill="#891301" rx="13.54" ry="5.51"/><path d="m13.89 60.54c-.62.57-1.28 1.2-1.52 2.11-.41 1.52.55 3.16 1.72 3.87 1.17.72 2.51.82 3.76 1.26 6 2.08 8.96 11.14 14.9 13.48 4.19 1.65 8.66-.48 13.01-1.24 5.66-.98 11.59.47 16.51 4.06 4.01 2.92 8.1 7.41 12.64 6.13 3.02-.85 5.14-4.05 7.51-6.52 3.86-4.03 8.85-6.38 13.91-6.53 1.56-.05 3.16.1 4.66-.44 2.46-.89 4.28-3.53 5.43-6.36s1.79-5.94 2.82-8.85c1.38-3.92 3.47-7.45 6.07-10.27.27-.29.59-2.06.68-2.48.14-.71-.37.09-.83-.37-3.1-3.08-7.27-3.8-11.16-4.84-10.3-2.73-19.95-8.33-30.08-11.88s-21.39-4.91-30.91.66c-2.52 1.48-3.88 3.38-5.54 5.98-1.85 2.89-4.65 4.87-7.03 7.05-5.53 5.08-11.04 10.13-16.55 15.18z" fill="url(#g)"/><path d="m72.84 74.22c-2.85-2.82-6.56-3.52-10.55-4.93-11.4-3.17-21.95-5.63-33.07-10.21-3.14-1.06-6.27-1.41-9.41-2.11-3.74-1.09-7.13-3.22-9.8-6.56-.2.71-.31 1.49-.28 2.34.19 5.4 0 9.39 1.33 11.26 1.34 1.88 40.68 13.38 50.94 16.78 7.15 2.37 8.83 4.1 11.9 3.81-.4-3.95 1.69-7.71-1.06-10.38z" fill="url(#h)"/><path d="m117.69 36.45c.48-4.46-.57-4.69-6.08-5.87-5.51-1.17-40.48-11.85-45.8-13.26s-8.36-2.58-11.78-1.41-7.22 3.52-7.22 3.52c-8.55 6.34-31.93 25.34-31.93 25.34s-3.78 1.83-4.85 5.64c2.67 3.34 6.06 5.47 9.8 6.56 3.14.7 6.27 1.06 9.41 2.11 11.12 4.58 21.67 7.04 33.07 10.21 3.83 1.35 7.84 2.49 10.64 5.04 1.14-1.21 3.04-.93 4.25-2.05 37.19-29.56 40.46-35.6 40.49-35.83z" fill="url(#i)"/><path d="m76.83 71.17c-1.21 1.12-4.01 2.87-3.99 3.05.36 3.7.45 10.66.78 10.56 3.23-.94 11.02-7.33 17.11-11.79 6.08-4.46 26.8-24.31 27.37-25.96.55-1.59.2-4.05.14-5.71-.09-2.56-.2-5.15-.44-7.7.24 2.63-1.48 4.38-2.95 5.76-11.95 11.17-24.09 20.55-38.02 31.79z" fill="url(#j)"/><path d="m56.94 18.55c1.55 0 3.4.51 5.96 1.21.66.18 1.36.37 2.11.57 1.97.52 8.26 2.39 15.54 4.55 12.6 3.74 26.87 7.99 30.42 8.74 1.43.31 3.04.65 3.7.93 0 .04.01.1.01.16.01.32.06.63.16.92.14 1.91.21 3.84.28 5.8.01.4.04.83.08 1.29.06.92.15 2.26.03 3-.05.07-.12.15-.21.25-.66.77-.91 1.82-.65 2.81s.98 1.79 1.93 2.14c.82.3 1.52.64 2.08.99.36.23.76.37 1.16.44v.07c0 .19.02.36.06.54v.05c-.01.18-.01.36 0 .54.05.55.15 1.27.48 2.04.13.31.3.61.49.88-.58.45-1 1.11-1.15 1.86s-.01 1.52.36 2.16c-1.2.38-2.19 1.24-2.73 2.42-.56 1.23-.6 2.61-.09 3.9.4 1.02 1.11 1.88 1.9 2.55-.19.37-.44.6-.55.64-1.32.47-2.17 1.76-2.07 3.16.13 1.81.23 3.74.31 5.91.01.4.04.83.08 1.29.06.93.16 2.27.02 3.01-2.42 3.06-20.63 20.55-26.33 24.73-1.49 1.1-3.11 2.32-4.68 3.51-3.62 2.75-8.45 6.41-10.76 7.52h-.04-.15c-.89 0-1.8-.37-3.76-1.2-1.52-.64-3.6-1.52-6.51-2.48-3.01-1-8.44-2.67-14.73-4.6-11.75-3.61-31.07-9.56-34.81-11.38-.39-1.16-.45-4.02-.51-6.38-.02-.89-.04-1.83-.08-2.82-.02-.48.04-.93.16-1.38.08-.29.2-.58.37-.89.63-1.19.42-2.65-.51-3.62l-.07-.07c-.06-.06-.12-.12-.17-.18-.1-.12-.18-.21-.24-.29.01-.01.01-.02.02-.02.03-.04.25-.26 1.28-1.21.15-.14.29-.3.41-.46.17-.11.34-.23.49-.37l.8-.73c1.06-.97 1.32-2.55.63-3.81-.56-1.01-1.62-1.61-2.73-1.61-.21 0-.43.02-.64.07-.15-.18-.32-.34-.51-.48.55-.96.55-2.15-.01-3.11-1.05-1.81-2.91-2.94-4.9-2.96-.19-.25-.42-.48-.69-.66l-.01-.01 1.53-1.67c.17-.19.32-.4.44-.62.6-.03 1.19-.16 1.77-.38 1.56-.61 2.36-2.35 1.81-3.93-.43-1.22-.49-3.68-.56-6.52-.02-.86-.04-1.78-.08-2.73-.02-.48.04-.93.16-1.38.67-2.37 3.21-3.68 3.21-3.68.22-.1.42-.23.61-.39.23-.19 23.21-18.86 31.7-25.17.61-.37 3.75-2.22 6.49-3.16.6-.2 1.21-.3 1.89-.3m0-3.12c-.98 0-1.93.14-2.92.48-3.42 1.17-7.22 3.52-7.22 3.52-8.55 6.34-31.93 25.34-31.93 25.34s-3.78 1.83-4.85 5.64c-.2.71-.31 1.49-.28 2.34.16 4.53.06 8.04.81 10.17-.3.12-.59.17-.89.17-.76 0-1.59-.36-2.86-.93-.32.45-.58 1-.74 1.57.34.39.72.67 1.11.99-.64.7-1.29 1.41-1.93 2.11-.29-.5-.76-.84-1.26-.87-.09 1.81-.19 3.62-.28 5.42.3.11.61.17.92.17.54 0 1.08-.17 1.55-.49-.4 1.52.03 3.33 1.04 4.33.83-.68 1.38-1.87 1.42-3.1h.01c.86 0 1.7.54 2.2 1.4-.6.93-1.2 1.87-1.8 2.8.39.86 1.18 1.38 1.97 1.38.23 0 .45-.04.67-.13.3.96.76 1.83 1.31 2.6-.79.73-1.31 1.23-1.45 1.39-1.43 1.58-1.25 2.83.14 4.46.11.13.24.26.36.39-.24.46-.46.96-.61 1.5-.2.71-.31 1.49-.28 2.34.19 5.4 0 9.39 1.33 11.26 1.33 1.88 40.67 13.37 50.94 16.78 6.62 2.2 8.56 3.84 11.25 3.84.09 0 .19 0 .28-.01.03.09.05.16.08.16h.01c3.23-.94 11.02-7.33 17.11-11.79 6.08-4.46 26.8-24.31 27.37-25.96.55-1.59.2-4.05.14-5.71-.07-2-.17-4.01-.32-6.01 1.38-.49 2.52-2.01 2.81-3.76.08-.45.12-.91.07-1.37-1.36-.56-3.05-2.06-2.35-3.6.26-.56.77-.82 1.29-.82.34 0 .68.11.97.31.74.51 1.21 1.46 1.65 2.36 1.24-2.26.6-5.75-1.31-7.13 1.5-.36 2.66-2.25 2.53-4.13-.16.36-.45.52-.76.52-.49 0-1.05-.38-1.29-.94-.15-.35-.21-.74-.25-1.13.01-.08.03-.15.03-.23 0-.22-.03-.43-.08-.65 0-.37-.01-.74-.03-1.1-.06-1.05-.48-2.26-1.33-2.41-.06-.01-.12-.02-.18-.02-.38 0-.73.21-1.09.41-.75-.47-1.65-.9-2.65-1.27.41-.48.67-.82.72-.98.55-1.59.2-4.05.14-5.71-.09-2.56-.2-5.15-.44-7.7.03.36.02.69-.01 1.02-.07-2.74-1.54-3.07-6.18-4.06-5.51-1.17-40.48-11.85-45.8-13.26-3.79-1.01-6.43-1.9-8.86-1.9zm-43.04 64.08c-.01-.17-.02-.34-.04-.51.28-.08.56-.15.84-.23-.28.27-.55.51-.8.74z" fill="#424242" opacity=".2"/></svg>